# xmcd CD database file
#
# Track frame offsets:
#	150
#	18053
#	42291
#	57485
#	72639
#	89076
#	105489
#	120419
#	140929
#	154599
#	169292
#	183419
#
# Disc length: 2599 seconds
#
# Revision: 1
# Processed by: cddbd v1.5PL3 Copyright (c) Steve Scherf et al.
# Submitted via: CDex 1.51
#
DISCID=a90a250c
DTITLE=Roland Van Campenhout - Lime and Coconutb
DYEAR=2003
DGENRE=Blues
TTITLE0=going down slow
TTITLE1=lime in the coconut
TTITLE2=the spider ande the fly
TTITLE3=blues wearing high heels shoes
TTITLE4=rubber burning
TTITLE5=thats´s amore
TTITLE6=good times, bad times
TTITLE7=kosher kamasutra
TTITLE8=alberta
TTITLE9=bird in my pyjamas
TTITLE10=baby call my name
TTITLE11=do it!
EXTD=YEAR: 2003
EXTT0=
EXTT1=
EXTT2=
EXTT3=
EXTT4=
EXTT5=
EXTT6=
EXTT7=
EXTT8=
EXTT9=
EXTT10=
EXTT11=
PLAYORDER=
